<svg width="24" height="24" viewBox="0 0 24 24" fill="none" xmlns="http://www.w3.org/2000/svg">
<g clip-path="url(#clip0_47_1809)">
<path d="M22.2354 18.2649C23.3922 16.3802 24.0031 14.2115 24 12.0002V11.9998C24.003 9.78845 23.3922 7.61968 22.2354 5.73506L22.2288 5.72477C21.1556 3.97557 19.6517 2.53081 17.8609 1.52855C16.0701 0.526288 14.0522 8.38594e-06 12 1.00218e-10C9.94785 -8.38574e-06 7.92994 0.526254 6.13914 1.5285C4.34833 2.53075 2.84447 3.9755 1.77124 5.72469L1.76458 5.73511C0.61065 7.62103 8.56513e-06 9.78901 0 12C-8.56495e-06 14.2109 0.610616 16.3789 1.76453 18.2648L1.77131 18.2754C2.84454 20.0245 4.3484 21.4693 6.13919 22.4715C7.92998 23.4737 9.94787 24 12 24C14.0522 24 16.0701 23.4737 17.8609 22.4714C19.6517 21.4692 21.1555 20.0245 22.2287 18.2753L22.2354 18.2649ZM13.5339 21.9433C13.3052 22.164 13.042 22.3457 12.7547 22.4815C12.5189 22.5935 12.2611 22.6517 12 22.6517C11.7389 22.6517 11.4811 22.5935 11.2453 22.4815C10.6985 22.2022 10.2305 21.7903 9.88399 21.2835C9.1763 20.2609 8.65185 19.123 8.33407 17.9207C9.55481 17.8455 10.7768 17.8073 12 17.8059C13.2227 17.8059 14.4447 17.8442 15.6661 17.9207C15.4902 18.5389 15.2705 19.1437 15.0087 19.7307C14.6639 20.5562 14.1631 21.3075 13.5339 21.9433ZM1.37178 12.6741H6.21195C6.24347 14.0247 6.38986 15.3702 6.64955 16.6959C5.32643 16.8124 4.0067 16.9723 2.69034 17.1757C1.91951 15.7927 1.46891 14.2544 1.37178 12.6741ZM2.69033 6.82429C4.00617 7.0282 5.32637 7.18815 6.65093 7.30413C6.39073 8.6298 6.24402 9.97524 6.21239 11.3258H1.37178C1.4689 9.74556 1.9195 8.20723 2.69033 6.82429ZM10.4661 2.05662C10.6948 1.83598 10.958 1.6542 11.2453 1.51848C11.4811 1.40643 11.7389 1.3483 12 1.3483C12.2611 1.3483 12.5189 1.40643 12.7547 1.51848C13.3015 1.79775 13.7695 2.20961 14.116 2.71641C14.8237 3.73904 15.3481 4.87694 15.6659 6.07928C14.4452 6.15439 13.2232 6.19266 12 6.19408C10.7773 6.19406 9.55525 6.15579 8.33386 6.07926C8.50975 5.46108 8.72946 4.85621 8.99131 4.26924C9.3361 3.44375 9.83684 2.6925 10.4661 2.05662ZM22.6282 11.3258H17.788C17.7565 9.97524 17.6101 8.62978 17.3505 7.30402C18.6736 7.18759 19.9933 7.02768 21.3097 6.82429C22.0805 8.20723 22.5311 9.74555 22.6282 11.3258ZM8.00563 16.5911C7.74195 15.3012 7.59303 13.9904 7.56062 12.6741H16.4395C16.4074 13.9904 16.2587 15.3012 15.9953 16.5912C14.665 16.5039 13.3332 16.4593 12 16.4576C10.6677 16.4576 9.33628 16.5021 8.00563 16.5911ZM15.9943 7.40883C16.258 8.6988 16.4069 10.0096 16.4394 11.3258H7.56047C7.59259 10.0096 7.74124 8.69878 8.00467 7.40878C9.33498 7.49606 10.6668 7.54059 12 7.54238C13.3323 7.54238 14.6637 7.49785 15.9943 7.40883ZM17.7876 12.6741H22.6282C22.5311 14.2544 22.0805 15.7927 21.3097 17.1757C19.9938 16.9717 18.6736 16.8118 17.3491 16.6958C17.6093 15.3702 17.756 14.0247 17.7876 12.6741ZM20.5012 5.5833C19.3508 5.74929 18.1968 5.88071 17.0395 5.97755C16.8315 5.2031 16.5632 4.44612 16.2371 3.71351C15.9394 3.03935 15.5648 2.40184 15.1208 1.81366C17.2667 2.47178 19.1498 3.79113 20.5012 5.5833ZM4.46809 4.46808C5.69907 3.23593 7.21352 2.32454 8.87866 1.81382C8.8534 1.84654 8.82741 1.87781 8.80251 1.91121C7.94663 3.14329 7.3232 4.52146 6.96297 5.97776C5.80554 5.87973 4.65081 5.74825 3.49876 5.5833C3.79588 5.18975 4.11976 4.81713 4.46809 4.46808ZM3.49875 18.4167C4.64921 18.2507 5.80313 18.1192 6.96049 18.0224C7.1685 18.7969 7.43678 19.5539 7.76286 20.2865C8.06058 20.9606 8.43518 21.5981 8.87922 22.1863C6.73328 21.5282 4.85016 20.2088 3.49875 18.4167ZM19.5319 19.5319C18.3009 20.764 16.7865 21.6754 15.1213 22.1861C15.1466 22.1534 15.1726 22.1221 15.1975 22.0888C16.0534 20.8567 16.6768 19.4785 17.037 18.0222C18.1945 18.1202 19.3492 18.2517 20.5012 18.4167C20.2041 18.8102 19.8802 19.1828 19.5319 19.5319Z" fill="black"/>
</g>
<defs>
<clipPath id="clip0_47_1809">
<rect width="24" height="24" fill="white"/>
</clipPath>
</defs>
</svg>
