<svg width="32" height="32" viewBox="0 0 32 32" fill="none" xmlns="http://www.w3.org/2000/svg">
<path fill-rule="evenodd" clip-rule="evenodd" d="M19.8201 17.8706C19.2144 18.1181 18.8276 19.0662 18.4351 19.5506C18.2338 19.7987 17.9938 19.8375 17.6845 19.7131C15.4113 18.8075 13.6688 17.2906 12.4145 15.1987C12.202 14.8744 12.2401 14.6181 12.4964 14.3169C12.8751 13.8706 13.3513 13.3637 13.4538 12.7625C13.6813 11.4325 11.9426 7.30688 9.64637 9.17625C3.0389 14.5606 20.6688 28.8413 23.8507 21.1175C24.7507 18.9281 20.8238 17.4594 19.8201 17.8706ZM16.0001 29.205C13.6632 29.205 11.3639 28.5837 9.35074 27.4075C9.02762 27.2181 8.637 27.1681 8.27575 27.2663L3.9014 28.4669L5.42514 25.11C5.63264 24.6531 5.57951 24.1213 5.28639 23.715C3.6564 21.4556 2.79453 18.7881 2.79453 16C2.79453 8.71812 8.71825 2.79437 16.0001 2.79437C23.2819 2.79437 29.205 8.71812 29.205 16C29.205 23.2812 23.2813 29.205 16.0001 29.205ZM16.0001 0C7.17763 0 0.00016727 7.1775 0.00016727 16C0.00016727 19.1038 0.881413 22.0844 2.55578 24.6712L0.125167 30.0244C-0.0992072 30.5188 -0.0173326 31.0975 0.333916 31.5094C0.603914 31.825 0.994537 32 1.39766 32C2.29891 32 7.21325 30.4556 8.46387 30.1125C10.7757 31.3494 13.3688 32 16.0001 32C24.8219 32 32 24.8219 32 16C32 7.1775 24.8219 0 16.0001 0Z" fill="white"/>
</svg>
